<svg width="263" height="149" viewBox="0 0 263 149" fill="none" xmlns="http://www.w3.org/2000/svg">
<path opacity="0.2" d="M138.368 52.0097L137.18 57.4658L135.992 62.9219L130.436 63.478L124.88 64.0344L122.634 58.922L120.388 53.8097L124.556 50.094L128.724 46.378L133.546 49.194L138.368 52.0097Z" fill="#34D1BF"/>
<path opacity="0.1" d="M250.22 118.284L246.353 114.256L242.486 110.227L245.122 105.305L247.758 100.383L253.255 101.369L258.751 102.355L259.511 107.887L260.272 113.419L255.246 115.851L250.22 118.284Z" fill="#34D1BF"/>
<path opacity="0.5" d="M186.067 147.412L184.235 145.504L182.403 143.596L183.652 141.264L184.901 138.933L187.504 139.4L190.108 139.867L190.468 142.487L190.828 145.108L188.448 146.26L186.067 147.412Z" fill="#B5E0FA"/>
<path opacity="0.4" d="M26.6715 21.3469L23.7581 15.9446L20.8443 10.5426L25.0818 6.10229L29.319 1.66177L34.8515 4.31977L40.384 6.97745L39.5657 13.0605L38.7478 19.1435L32.7096 20.245L26.6715 21.3469Z" fill="#B5E0FA"/>
<path opacity="0.3" d="M14.4328 72.7264L13.4617 76.529L12.4909 80.3317L8.43338 80.8246L4.37588 81.3177L2.83927 77.8197L1.30244 74.3219L4.41027 71.6671L7.51795 69.0121L10.9753 70.8694L14.4328 72.7264Z" fill="#34D1BF"/>
<path opacity="0.5" d="M192.52 37.8298L190.688 35.9216L188.857 34.0135L190.105 31.6818L191.354 29.3501L193.958 29.8173L196.561 30.2843L196.921 32.9047L197.282 35.5251L194.901 36.6774L192.52 37.8298Z" fill="#34D1BF"/>
</svg>
