<svg width="262" height="149" viewBox="0 0 262 149" fill="none" xmlns="http://www.w3.org/2000/svg">
<path opacity="0.2" d="M138.153 52.0097L136.965 57.4658L135.777 62.9219L130.221 63.478L124.665 64.0344L122.419 58.922L120.173 53.8097L124.341 50.094L128.509 46.378L133.331 49.194L138.153 52.0097Z" fill="#34D1BF"/>
<path opacity="0.1" d="M250.005 118.284L246.138 114.256L242.271 110.227L244.907 105.305L247.544 100.383L253.04 101.369L258.536 102.355L259.296 107.887L260.057 113.419L255.031 115.851L250.005 118.284Z" fill="#34D1BF"/>
<path opacity="0.5" d="M185.852 147.412L184.02 145.504L182.189 143.596L183.437 141.264L184.686 138.933L187.29 139.4L189.893 139.867L190.253 142.487L190.614 145.108L188.233 146.26L185.852 147.412Z" fill="#B5E0FA"/>
<path opacity="0.4" d="M26.4567 21.3469L23.5432 15.9446L20.6294 10.5426L24.8669 6.10229L29.1042 1.66177L34.6366 4.31977L40.1692 6.97745L39.3509 13.0605L38.5329 19.1435L32.4948 20.245L26.4567 21.3469Z" fill="#B5E0FA"/>
<path opacity="0.3" d="M14.2179 72.7264L13.2469 76.529L12.276 80.3317L8.21853 80.8246L4.16104 81.3177L2.62442 77.8197L1.08759 74.3219L4.19542 71.6671L7.3031 69.0121L10.7605 70.8694L14.2179 72.7264Z" fill="#34D1BF"/>
<path opacity="0.5" d="M192.305 37.8298L190.473 35.9216L188.642 34.0135L189.891 31.6818L191.139 29.3501L193.743 29.8173L196.346 30.2843L196.706 32.9047L197.067 35.5251L194.686 36.6774L192.305 37.8298Z" fill="#34D1BF"/>
</svg>
